<?xml version="1.0" standalone="no"?>
<!DOCTYPE svg PUBLIC "-//W3C//DTD SVG 20010904//EN"
 "http://www.w3.org/TR/2001/REC-SVG-20010904/DTD/svg10.dtd">
<svg version="1.0" xmlns="http://www.w3.org/2000/svg"
 width="512.000000pt" height="512.000000pt" viewBox="0 0 512.000000 512.000000"
 preserveAspectRatio="xMidYMid meet">

<g transform="translate(0.000000,512.000000) scale(0.100000,-0.100000)"
fill="#000000" stroke="none">
<path d="M2270 5099 c-463 -52 -950 -258 -1320 -557 -515 -418 -858 -1047
-930 -1707 -13 -116 -13 -434 0 -550 52 -477 254 -959 558 -1335 104 -127 256
-278 388 -384 l109 -87 12 53 c7 29 35 184 63 343 27 160 55 307 61 327 24 89
173 189 367 247 313 95 290 85 412 171 97 69 121 90 153 143 44 72 64 133 77
236 l10 74 -58 53 c-122 110 -223 293 -268 483 -21 91 -29 256 -15 308 21 77
32 84 172 100 96 11 138 20 187 43 109 51 230 187 312 349 l32 65 54 -110 c62
-127 120 -198 195 -239 48 -26 66 -29 181 -35 143 -7 166 -18 189 -87 18 -54
15 -275 -5 -373 -45 -219 -161 -433 -280 -518 -35 -25 -36 -27 -31 -76 11 -96
36 -182 74 -251 35 -66 44 -75 156 -152 111 -75 129 -84 245 -117 185 -54 309
-95 363 -123 66 -33 136 -99 158 -149 10 -22 35 -132 54 -245 40 -226 94 -512
99 -516 7 -7 230 182 320 272 409 409 674 959 736 1530 13 116 13 434 0 550
-52 477 -254 959 -558 1335 -418 515 -1047 858 -1707 930 -106 12 -458 11
-565 -1z m1037 -555 c15 -11 36 -36 45 -55 16 -32 16 -48 -9 -334 -14 -165
-27 -302 -29 -304 -1 -1 -27 8 -56 22 -126 59 -378 91 -723 89 -336 -1 -545
-29 -658 -90 -26 -14 -49 -23 -51 -21 -2 2 -15 139 -29 304 -24 285 -25 302
-9 335 11 23 32 43 62 58 l45 22 692 -2 c681 -3 692 -3 720 -24z"/>
</g>
</svg>
